<?xml version="1.0" encoding="utf-8"?>
<!-- Generator: Adobe Illustrator 16.0.0, SVG Export Plug-In . SVG Version: 6.00 Build 0)  -->
<!DOCTYPE svg PUBLIC "-//W3C//DTD SVG 1.1//EN" "http://www.w3.org/Graphics/SVG/1.1/DTD/svg11.dtd">
<svg version="1.1" id="Calque_2" xmlns="http://www.w3.org/2000/svg" xmlns:xlink="http://www.w3.org/1999/xlink" x="0px" y="0px"
	 width="460px" height="460px" viewBox="0 0 460 460" enable-background="new 0 0 460 460" xml:space="preserve">
<path fill="#FFFFFF" d="M448.676,230.145c0.005-33.912-25.524-62.008-58.419-66.191c8.747-11.308,13.977-25.467,13.989-40.823
	c0.014-17.877-6.953-34.701-19.615-47.372c-12.662-12.668-29.48-19.646-47.439-19.646c-15.334,0.019-29.472,4.896-40.766,13.626
	C292.284,36.875,264.027,11,229.919,11h-0.162c-17.822,0-34.578,7.39-47.181,20.066c-10.543,10.604-17.102,24.219-18.974,38.809
	C152.365,61.172,138.308,56,123.052,56h-0.292c-36.806,0-66.866,30-67.01,66.805c-0.059,15.035,4.86,29.371,13.961,41.116
	c-14.674,1.856-28.25,8.513-38.866,19.204c-12.661,12.749-19.594,29.68-19.521,47.661c0.136,33.841,25.652,61.846,58.407,65.991
	c-8.737,11.292-13.962,25.62-13.981,40.953C55.704,374.598,85.634,405,122.47,405h0.215c15.607,0,29.978-5.575,41.384-14.563
	c4.133,32.702,32.584,57.963,65.609,57.963c3.465,0,6.967-0.329,10.407-0.884c27.731-4.473,47.099-21.596,54.535-48.171
	c0.809-2.89,1.429-5.569,1.885-8.398C308.146,399.934,322.326,405,337.269,405h0.012c36.848,0,66.889-30.174,66.965-67.025
	c0.033-15.037-4.889-29.419-13.973-41.131c14.665-1.89,28.194-8.52,38.765-19.084C441.698,265.105,448.673,248.164,448.676,230.145z
	 M337.283,178.33L337.283,178.33v0.001V178.33z M337.28,392.904L337.28,392.904L337.28,392.904L337.28,392.904z"/>
<g>
	<g>
		<g>
			<g>
				<path fill-rule="evenodd" clip-rule="evenodd" fill="#33BBEE" d="M177.97,123.247c-0.069,30.495-24.966,55.187-55.542,55.085
					c-30.363-0.101-55.083-25.029-54.963-55.426c0.119-30.556,24.979-55.21,55.539-55.079
					C153.407,67.958,178.036,92.793,177.97,123.247z"/>
				<path fill-rule="evenodd" clip-rule="evenodd" fill="#33BBEE" d="M67.464,337.555c0.039-30.521,24.884-55.239,55.446-55.161
					c30.396,0.077,55.102,24.904,55.058,55.326c-0.043,30.512-24.943,55.281-55.46,55.185
					C92.103,392.806,67.426,367.998,67.464,337.555z"/>
				<path fill-rule="evenodd" clip-rule="evenodd" fill="#33BBEE" d="M229.979,133.906c-30.215,0.08-55.126-24.689-55.232-54.918
					c-0.106-30.587,24.575-55.516,55.039-55.586c30.462-0.073,55.414,24.633,55.468,54.919
					C285.304,109.071,260.69,133.825,229.979,133.906z"/>
				<path fill-rule="evenodd" clip-rule="evenodd" fill="#33BBEE" d="M337.205,67.827c30.521-0.037,55.351,24.78,55.326,55.294
					c-0.024,30.411-24.778,55.177-55.186,55.21c-30.522,0.033-55.335-24.774-55.315-55.304
					C282.053,92.594,306.772,67.864,337.205,67.827z"/>
				<path fill-rule="evenodd" clip-rule="evenodd" fill="#33BBEE" d="M78.319,285.615c-30.22,0.101-55.159-24.653-55.281-54.871
					c-0.124-30.601,24.531-55.545,54.988-55.634c30.477-0.092,55.442,24.585,55.517,54.871
					C133.618,260.734,109.024,285.513,78.319,285.615z"/>
				<path fill-rule="evenodd" clip-rule="evenodd" fill="#33BBEE" d="M326.457,230.345c0.019-30.515,24.854-55.28,55.387-55.234
					c30.278,0.044,55.122,24.848,55.118,55.033c-0.005,30.835-24.778,55.541-55.624,55.472
					C351.157,285.546,326.438,260.655,326.457,230.345z"/>
				<path fill-rule="evenodd" clip-rule="evenodd" fill="#33BBEE" d="M337.277,282.393c30.521-0.002,55.322,24.848,55.253,55.364
					c-0.062,30.42-24.854,55.153-55.26,55.147c-30.528-0.007-55.276-24.819-55.24-55.391
					C282.067,307.105,306.832,282.394,337.277,282.393z"/>
			</g>
		</g>
	</g>
	<path fill="#114455" d="M361.941,147h-82.174L230,97.232L180.232,147H98.059c-9.49,25-14.819,55.229-14.819,85.961
		c0,30.37,5.206,58.039,14.485,85.039h264.549c9.28-27,14.486-54.669,14.486-85.039C376.761,202.229,371.431,172,361.941,147z"/>
	<path fill="#FFFFFF" d="M366.421,324H93.578l-1.377-4.059c-9.833-27.927-14.818-57.236-14.818-86.971
		c0-30.945,5.253-61.468,15.19-88.046L93.996,141H180v12h-77.834c-8.559,24-13.069,51.875-13.069,79.961
		c0,27.021,4.309,54.039,12.812,79.039h256.183c8.504-25,12.812-52.017,12.812-79.039c0-28.085-4.51-55.961-13.068-79.961H280v-12
		h86.004l1.424,3.888c9.938,26.58,15.189,57.026,15.189,87.969c0,29.736-4.985,59.139-14.818,87.065L366.421,324z"/>
	<polygon fill="#FFFFFF" points="272.198,153.007 230,110.808 187.779,153.029 176.045,153.083 164.914,141.953 230,76.866 
		295.086,141.953 284.019,153.019 	"/>
	<g>
		<polyline fill="#FFFFFF" points="274.527,328.719 230,284.19 184.076,330.115 		"/>
		<polygon fill="#FFFFFF" points="278.317,349.074 230,300.757 181.682,349.074 181.637,316 230,267.624 278.355,315.98 		"/>
	</g>
	<g>
		<rect x="128" y="197" fill="#22FF87" width="6" height="66"/>
		<path fill="#22FF87" d="M132.441,257.168c-8.285,0-16.696-2.78-18.053-3.248l2.411-6.99c6.445,2.214,18.465,4.488,23.277,1.165
			c0.91-0.629,2.131-1.807,2.222-4.769c0.127-4.11-4.591-6.022-12.378-8.682c-8.481-2.897-20.096-6.864-17.479-19.375
			c0.747-3.563,2.8-6.382,5.941-8.153c9.642-5.435,27.27,0.506,29.249,1.202l-2.45,6.977c-6.263-2.192-18.091-4.6-23.171-1.735
			c-1.298,0.733-2.017,1.727-2.33,3.224c-1.094,5.228,2.194,7.297,12.631,10.862c7.879,2.692,17.685,6.041,17.38,15.907
			c-0.181,5.823-3.046,8.994-5.419,10.631C141.04,256.414,136.757,257.168,132.441,257.168z"/>
		<rect x="161" y="263" fill="#22FF87" width="35" height="8"/>
	</g>
	<path fill-rule="evenodd" clip-rule="evenodd" fill="#33BBEE" d="M230.405,303.78c0,0,30.365,30.77,34.898,34.772
		c17.641,15.577,24.366,34.975,18.035,57.613c-6.31,22.546-22.018,36.011-45.119,39.737c-30.773,4.965-59.694-17.575-62.717-48.645
		c-2.167-22.259,9.027-41.62,26.556-55.441C209.419,325.003,230.405,303.78,230.405,303.78z"/>
</g>
</svg>
